<svg version="1.1" id="Vrstva_1" xmlns="http://www.w3.org/2000/svg" x="0" y="0" width="470.2" height="48" xml:space="preserve"><style>.st0{fill:#3d3d3d}.st1{fill:#d92a2f}.st2{fill:#fff}.st3{fill:#f9c91e}.st14{fill:#bc2727}.st17{fill:none;stroke:#8f8f8f}.st18,.st19{fill-rule:evenodd;clip-rule:evenodd;fill:#3d3d3d}.st19{fill:#bc2727}</style><path class="st0" d="M69.6 5.6c-1 1-1.3 1.9-1.6 3.2l3.3 3.3c1.3-.3 2.2-.7 3.2-1.6 1-1 1.4-2 1.7-3.3l-3.3-3.3c-1.4.2-2.4.7-3.3 1.7zm5.1-2.2c-.3 0-.5.1-.8.1L76.4 6c.1-.8.2-1.5 0-2.2 0-.1-.1-.2-.2-.2-.6-.1-1-.2-1.5-.2zm-6.9 9c.8.2 1.4.1 2.2 0L67.5 10c-.1.8-.2 1.4 0 2.2.1 0 .2.1.3.2zm-1.6.5c-.2-1.2-.2-2.5 0-3.7v-.1c.4-1.7 1.2-3.3 2.4-4.5 1.2-1.2 2.8-2.1 4.5-2.5h.1c1.2-.3 2.5-.3 3.7 0 .4.1.8.4.9.9.3 1.2.3 2.4 0 3.7v.2c-.4 1.7-1.2 3.3-2.4 4.5-2.2 2.2-5.3 3.1-8.3 2.5-.5-.2-.8-.5-.9-1zm3.9-2.8c-.2 0-.3-.1-.3-.3 0-.1 0-.2.1-.2l.4-.4-.4-.4c-.1-.1-.1-.3 0-.5.1-.1.3-.1.4 0l.4.4.8-.7-.4-.4c-.1-.1-.1-.3 0-.5.1-.1.3-.1.4 0l.5.4.7-.7-.4-.4c-.1-.1-.1-.3 0-.5.1-.1.3-.1.4 0l.4.4.4-.4c.1-.1.3-.1.5 0 .1.1.1.3 0 .4l-.4.4.4.5c.1.1.1.3 0 .5s-.3.1-.5 0l-.4-.4-.7.7.4.4c.1.1.1.3 0 .5s-.3.1-.5 0l-.3-.5-.7.7.4.4c.1.1.1.3 0 .5s-.3.1-.5 0l-.4-.4-.4.4c-.1.1-.2.1-.3.1zm-13-5.8c.6-.4 1.2-.7 1.7-1-1.5-.1-3.5.8-5 2.4-1.5 1.5-2.4 3.6-2.4 5 .2-.5.6-1.1 1-1.7l.5.5c-.2.3-.3.5-.5.8-.6 1.1-.6 1.7-.5 1.8s.7.1 1.8-.5S56 10.1 57.1 9s2-2.3 2.6-3.4.6-1.7.5-1.8-.7-.1-1.8.5c-.3.1-.5.3-.8.5l-.5-.5zm.1-2c1.6-.4 3-.2 3.9.6.8.8 1.1 2.2.6 3.9-.4 1.5-1.3 3.1-2.6 4.3-1.2 1.2-2.8 2.2-4.3 2.6-1.6.4-3 .2-3.9-.6-.8-.8-1.1-2.2-.6-3.9.4-1.5 1.3-3.1 2.6-4.3 1.2-1.2 2.8-2.2 4.3-2.6zm1.1 8c1.5-1.5 2.4-3.6 2.4-5-.6 1.4-1.9 3.1-3.1 4.3-1.2 1.2-2.9 2.5-4.3 3.1 1.4 0 3.4-.9 5-2.4zm-5.7-2.7c.2-.2.4-.2.6 0l.8.8c.2.2.2.4 0 .6s-.4.2-.6 0l-.8-.8c-.2-.2-.2-.5 0-.6zM54 6.1c.2-.2.4-.2.6 0l.9.9c.2.2.2.4 0 .6s-.4.2-.6 0l-.9-.9c-.1-.1-.1-.4 0-.6zm1.5-1.4c.2-.2.4-.2.6 0l.8.8c.2.2.1.4 0 .6-.2.1-.4.1-.6 0l-.8-.8c-.2-.2-.2-.5 0-.6zm178 1.6c0-.6-.3-.9-1.1-.9h-1.6v1.8h1.6c.7 0 1.1-.4 1.1-.9zm0 0zm-1 2.2h-1.7v2h1.7c.7 0 1.1-.4 1.1-1-.1-.5-.5-1-1.1-1z"/><path class="st0" d="M236 2h-8c-1.1 0-2 .9-2 2v8c0 1.1.9 2 2 2h8c1.1 0 2-.9 2-2V4c0-1.1-.9-2-2-2zm-.8 7.6c0 1.3-.8 2.4-2.3 2.4h-3.8V4h3.6c1.6 0 2.3 1 2.3 2.2 0 .6-.3 1.3-1 1.6.9.4 1.2 1.2 1.2 1.8zm40.3-7c0-.3-.3-.6-.6-.6s-.6.3-.6.6v10.7c0 .3.3.6.6.6s.6-.3.6-.6V2.6z"/><path class="st1" d="M283.9 5.3c-.1-.1-.1-.3 0-.5.6-.7 1.1-1.2 1.7-1.7.5-.4-.1-.7-.3-.7-2.9-1.2-5.7 1.3-8.6.5v5.9c2.9.8 5.7-1.8 8.6-.5.1.1.3 0 .3 0 .1-.1 0-.2 0-.4-.5-.9-1-1.8-1.7-2.6z"/><path class="st0" d="M218.4 13l-.6-2.1h-3.5l-.7 2.1h-2.1L215 3h2l3.5 10h-2.1zm-3.2-5.1l-.4 1.3h2.4l-.4-1.2-.8-2.6-.8 2.5z"/><path class="st1" d="M129 19.3c0-1.3 1-2.3 2.3-2.3h9.3c1.3 0 2.3 1.1 2.3 2.3v9.3c0 1.3-1 2.3-2.3 2.3h-9.3c-1.3 0-2.3-1.1-2.3-2.3v-9.3z"/><path class="st2" d="M133.9 28h-1.5v-6l-.8.7-.8-1 1.7-1.5h1.3V28h.1zm7-2.1c0 1.4-1.3 2.1-2.5 2.1s-2.5-.7-2.5-2.1v-3.8c0-1.4 1.4-2.1 2.5-2.1s2.5.7 2.5 2.1v3.8zm-1.4-.3v-3.2c0-.7-.5-1-1-1s-1 .3-1 1v3.2c0 .7.6 1 1 1 .4.1 1-.2 1-1z"/><path class="st3" d="M97 3.3C97 2.1 98 1 99.3 1h9.3c1.3 0 2.3 1.1 2.3 2.3v9.3c0 1.3-1 2.3-2.3 2.3h-9.3c-1.3.1-2.3-1-2.3-2.2V3.3z"/><path d="M106.5 6.2c0 1-.8 1.8-1.5 2.4-.6.5-1.8 1.1-1.9 2.1h3.4V12h-5v-1.1c0-1.3.8-2.2 1.7-2.8.9-.6 1.7-1.2 1.7-1.8 0-.5-.5-.8-1.1-.8-.5 0-1.1.2-1.5.6l-.8-1.2c.6-.5 1.4-.8 2.3-.8 1.4-.1 2.7.5 2.7 2.1z"/><path class="st3" d="M113 3.3c0-1.3 1-2.3 2.3-2.3h9.3c1.3 0 2.3 1.1 2.3 2.3v9.3c0 1.3-1 2.3-2.3 2.3h-9.3c-1.3 0-2.3-1.1-2.3-2.3V3.3z"/><path d="M122.4 9.8c0 1.4-1.2 2.2-2.6 2.2-1 0-1.8-.3-2.4-.8l.8-1.2c.5.4 1 .6 1.5.6s1.1-.3 1.1-1v-.8c0-.5-.3-.8-.7-.8-.4 0-1.1.4-1.3.5l-1.2-.5V4h4.6v1.3h-3.1v1.6c.4-.3 1-.4 1.3-.4 1.3 0 2 .9 2 2.1v1.2z"/><path class="st3" d="M129 3.3c0-1.3 1-2.3 2.3-2.3h9.3c1.3 0 2.3 1.1 2.3 2.3v9.3c0 1.3-1 2.3-2.3 2.3h-9.3c-1.3 0-2.3-1.1-2.3-2.3V3.3z"/><path d="M133.9 12h-1.5V6l-.8.7-.8-1 1.7-1.5h1.3V12h.1zm7-2.1c0 1.4-1.3 2.1-2.5 2.1s-2.5-.7-2.5-2.1V6.1c0-1.4 1.4-2.1 2.5-2.1s2.5.7 2.5 2.1v3.8zm-1.4-.3V6.4c0-.7-.5-1-1-1s-1 .3-1 1v3.2c0 .7.6 1 1 1 .4.1 1-.2 1-1z"/><path d="M266 6h4v4h-4v4h-4v-4h-4V6h4V2h4v4z" fill="#c13f3e"/><path class="st0" d="M293.6 1.2c.4.9 1.2 1.8 2.4 2.7 1.2-.9 2.1-1.8 2.4-2.7l2.7 1.6 2.3 3.1-2.3 1.7-1.1-.9v8.1h-8V6.7l-1.1.8-2.3-1.7 2.3-3.1 2.7-1.5z"/><path class="st1" d="M206.5 12l-5.4-9.3c-.2-.4-.6-.7-1.1-.7s-.9.2-1.1.7l-5.4 9.3c-.2.4-.2.9 0 1.3s.7.7 1.1.7h10.8c.5 0 .9-.2 1.1-.7.3-.4.3-.9 0-1.3zm-6-1.4h-1.3V5h1.4l-.1 5.6zm-.6 2.5c-.5 0-.9-.4-.9-.9s.4-.9.9-.9.9.4.9.9c0 .4-.3.9-.9.9z"/><path class="st0" d="M35.7 9.7c1.4.3 3.1.1 4.7-.4 1.7-.5 3.2-1.3 4.2-2.2 1.1-1 1.6-2.1 1.3-3.1s-1.2-1.6-2.7-1.9c-1.4-.3-3.1-.1-4.7.4s-3.2 1.3-4.2 2.2c-1.1 1-1.6 2.1-1.3 3.1s1.2 1.6 2.7 1.9"/><path class="st0" d="M45.2 8.2c-1.1 1-2.7 1.9-4.5 2.4s-3.6.6-5.1.4c-.8-.1-1.5-.4-2-.8l.5 1.7c.3 1 1.2 1.6 2.7 1.9 1.4.3 3.1.1 4.7-.4s3.2-1.3 4.2-2.2c1.1-1 1.6-2.1 1.3-3.1l-.5-1.7c-.2.7-.7 1.3-1.3 1.8"/><path class="st1" d="M4 20c0-1.1.9-2 2-2h4c1.1 0 2 .9 2 2v8c0 1.1-.9 2-2 2H6c-1.1 0-2-.9-2-2v-8zM189.9 7h-5.1l1.9-2c-1.6-1.4-4-1.2-5.5.3-.6.6-1 1.5-1.1 2.3v.3l-2-.1v-.3c.2-1.4.8-2.7 1.7-3.7 2.2-2.3 5.9-2.5 8.3-.3l1.5-1.5.3 5z"/><path d="M187.9 8.1l2 .1v.3c-.2 1.4-.8 2.7-1.7 3.7-1.1 1.2-2.7 1.8-4.3 1.8-1.5 0-2.9-.6-4-1.6l-1.5 1.5-.3-5h5.1l-1.9 2c1.6 1.4 4 1.2 5.5-.3.6-.6 1-1.5 1.1-2.3v-.2z" fill="#237d5a"/><path class="st0" d="M156.6 5.1l.9-1.1c.3-.4.3-.9-.1-1.2-.4-.3-.9-.3-1.2.1l-1 1.1c-.6-.4-1.4-.7-2.1-.8v-1c.6 0 1.1-.5 1.1-1.1s-.5-1.1-1.1-1.1h-2.3c-.6 0-1.1.5-1.1 1.1s.5 1.1 1.1 1.1h.1v1c-3 .6-5.3 3.2-5.3 6.3 0 3.5 2.9 6.4 6.4 6.4s6.4-2.9 6.4-6.4c0-1.7-.7-3.3-1.8-4.4zm-4.6 9.2c-2.6 0-4.8-2.1-4.8-4.8 0-2.6 2.1-4.8 4.8-4.8 2.6 0 4.8 2.1 4.8 4.8s-2.2 4.8-4.8 4.8zm.7-5.9l-.3-2.7c0-.2-.2-.4-.4-.3-.2 0-.3.2-.3.3l-.3 2.7c-.4.2-.6.6-.6 1.1 0 .7.6 1.3 1.3 1.3s1.3-.6 1.3-1.3c-.1-.4-.3-.8-.7-1.1zm15.5-2.9l.6.8 1.2-.9-.7-.7z"/><path class="st0" d="M169.9 3.4c-1.3-1-3.4-1.1-5.6 0-.1-.2-.2-.4-.4-.5-.6-.5-1.4-.5-1.9.1s-.5 1.4.1 1.9c-1.4 1.3-1.5 3.6-.2 5.3 1.4 1.8 3.8 2.2 5.4 1 .3-.2.6-.8.8-1.1l3.7 3.4 3-1.9.1-2.3c.1-.1-3.3-4.6-5-5.9zm2 7.6l-4.2-5.2-.1-.1-.1-.1c-.8-.9-1.6-1.3-2.7-1.3 2-1.1 3.4-1.1 4.6-.2 1.5 1.2 4.4 4.8 4.9 5.5l-2.4 1.4zm2.4.1l-1.6 1v-.5l1.6-1v.5z"/><path class="st3" d="M4 4c0-1.1.9-2 2-2h4c1.1 0 2 .9 2 2v8c0 1.1-.9 2-2 2H6c-1.1 0-2-.9-2-2V4z"/><path class="st1" d="M4 36c0-1.1.9-2 2-2h4c1.1 0 2 .9 2 2v8c0 1.1-.9 2-2 2H6c-1.1 0-2-.9-2-2v-8z"/><path class="st3" d="M11.4 34.6c.4.4.6.9.6 1.4v8c0 1.1-.9 2-2 2H6c-.5 0-1-.2-1.4-.6l6.8-10.8z"/><path class="st0" d="M304.5 3.7c0-1.2 1.1-2.2 2.5-2.2h10c1.4 0 2.5 1 2.5 2.2v8.6c0 1.2-1.1 2.2-2.5 2.2h-10c-1.4 0-2.5-1-2.5-2.2V3.7z"/><path d="M307.5 3.5h3v1h-3v-1zm0 4h3v1h-3v-1zm0 4h3v1h-3v-1zm3-7h1v3h-1v-3zm-4 0h1v3h-1v-3zm4 4h1v3h-1v-3zm-4 0h1v3h-1v-3zm7-5h3v1h-3v-1zm0 4h3v1h-3v-1zm0 4h3v1h-3v-1zm3-7h1v3h-1v-3zm-4 0h1v3h-1v-3zm4 4h1v3h-1v-3zm-4 0h1v3h-1v-3z" fill="#f54040"/><path d="M293.6 17.2c.4.9 1.2 1.8 2.4 2.7 1.2-.9 2.1-1.8 2.4-2.7l2.7 1.6 2.3 3.1-2.3 1.7-1.2-.9v8.1h-8v-8.1l-1.1.8-2.3-1.7 2.3-3.1 2.8-1.5z" fill="#cecece"/><path d="M88 12.8c-.6.1-1.1.3-1.6.4v.5c1 .3 2 .3 3 0v-.5c-.4-.2-.9-.3-1.4-.4zm4.1-1c-.7.4-1.3.9-1.9 1.3v.3c.9-.3 1.6-.9 2.2-1.6-.1.1-.2.1-.3 0zm-8.4-.2l-.2.1.2.2c.6.7 1.3 1.2 2.1 1.5v-.3l-1.2-.9c-.4-.1-.6-.4-.9-.6zm2-2.4l-.1-.1c-.3.1-.5.1-.8.2-.2.1-.4.1-.6.2 0 .3 0 .6-.1.9 0 .2-.1.5 0 .7.7.5 1.3 1 2 1.4l1.2-.3c.1 0 .2 0 .3-.1v-1.5c-.6-.5-1.2-.9-1.9-1.4zm4.7-.1c-.7.5-1.4 1-2 1.5V12c.2.1.5.2.7.3.2 0 .4.2.6.2.5-.3 1.1-.6 1.6-1 .1-.1.2-.1.3-.2.1-.5.1-1 .1-1.4v-.4c-.2-.1-.4-.1-.6-.2-.2-.1-.4-.2-.7-.2zm2.9-.9c-.1.1-.2.3-.3.4-.1.3-.3.5-.4.8-.2.6-.2 1.2-.2 1.8.2.1.3.2.5.2.5-.7.8-1.5.9-2.3h-.1c-.1-.4-.2-.7-.4-.9zm-10.6 0c-.2.1-.4.1-.5.3.1.9.4 1.8.8 2.6 0 0 0 .1.1.1.2 0 .3-.2.4-.2v-.6c0-.3.1-.5 0-.8-.3-.6-.6-1-.8-1.4zm4.2-1.7c-.3.7-.5 1.4-.8 2.1v.1c.6.5 1.2.9 1.8 1.3 0 0 0 .1.1.1.6-.5 1.2-.9 1.8-1.4l-.6-1.8c-.1-.1 0-.3-.1-.4h-2.2zM90.8 5c-.3.2-.4.5-.6.7-.1.2-.3.3-.3.5.2.5.4 1.1.5 1.6.1.1.1.3.2.5.5.2 1 .3 1.5.5.1-.1.2-.3.3-.4.2-.4.5-.7.5-1.1-.2-.6-.4-1.1-.6-1.7-.3-.1-.6-.2-.9-.4-.2 0-.4-.1-.6-.2zm-5.5 0c-.2 0-.4.1-.6.2-.3.1-.6.1-.8.3-.2.6-.4 1.2-.7 1.8 0 .1-.1.2-.1.3.1.3.3.5.4.8.1.2.2.4.5.6.4-.1.8-.2 1.1-.3.1 0 .3-.1.3-.2.3-.7.5-1.4.7-2.1-.2-.3-.4-.6-.6-1 0-.3 0-.4-.2-.4zm7.7-.1c0 .1-.1.2-.1.4.1.4.3.8.4 1.2l.3.9c.1.1.2.3.3.4 0-1-.3-2-.9-2.9zm-10-.1c-.5.8-.8 1.8-.9 2.8 0 0 .1 0 .1-.1 0 0 .1 0 .1-.1.3-.8.5-1.5.8-2.3V5c.1-.1 0-.1-.1-.2zm4.2-1.6c-.3.2-.5.5-.7.8-.1.2-.3.4-.4.6.1.1.2.3.3.4.2.2.3.5.5.7.1.1.2.1.3.1h2.2c.2-.3.4-.6.7-.8.1-.1.2-.2.2-.3-.3-.5-.6-.9-.9-1.4-.8-.1-1.5-.1-2.2-.1zm3-.7c-.2.2-.2.3-.3.5l.4.5c.2.2.3.5.6.7l1.5.6c.1-.2.1-.5.1-.7-.7-.7-1.5-1.2-2.3-1.6zm-4.1-.1c-1 .3-1.9.9-2.6 1.7.1.2.3.3.4.5.3-.1.5-.2.8-.2.2-.1.4-.1.6-.2.4-.4.6-.8 1-1.2 0-.3-.1-.4-.2-.6zm1.9-.3c-.3 0-.7 0-1 .1 0 .1.1.2.1.3.7 0 1.4 0 2.1.1.1-.1.1-.2.2-.3-.4-.1-.9-.2-1.4-.2zM87.9.5c.3 0 .6 0 1 .1 1.7.2 3.4 1.1 4.6 2.3 1.2 1.3 1.9 2.9 2 4.6.1 1.8-.4 3.6-1.6 5.1-1.1 1.5-2.8 2.5-4.6 2.8-1.8.3-3.6 0-5.2-1-1.7-1-2.9-2.6-3.4-4.5-.6-2.1-.2-4.4 1.1-6.2 1.4-2 3.7-3.2 6.1-3.2z" fill="#0b286c"/><path class="st1" d="M328.9 10h-1.8l-.6-8h3.1l-.7 8zm-.9 4c-.7 0-1.3-.6-1.3-1.4 0-.7.6-1.3 1.3-1.3.7 0 1.3.6 1.3 1.3 0 .8-.5 1.4-1.3 1.4z"/><path d="M344 1c-3.9 0-7 3.1-7 7s3.1 7 7 7 7-3.1 7-7-3.1-7-7-7z" fill="#ffc71e"/><path d="M342.4 7.4c-.2.2-.5.3-.8.3s-.5-.1-.8-.3c-.2-.2-.3-.4-.3-.7 0-.3.1-.5.3-.7.2-.2.5-.3.8-.3s.5.1.8.3c.2.2.3.4.3.7 0 .3-.1.5-.3.7zm5 0c-.2.2-.5.3-.8.3s-.5-.1-.8-.3c-.2-.2-.3-.4-.3-.7 0-.3.1-.5.3-.7.2-.2.5-.3.8-.3s.5.1.8.3c.2.2.3.4.3.7 0 .3-.1.5-.3.7z" fill="#422f0b"/><path d="M340 11.1c2.8-2 5.4-2 8 0" fill="none" stroke="#422f0b" stroke-width="1.2"/><path d="M293.6 33.2c.4.9 1.2 1.8 2.4 2.7 1.2-.9 2.1-1.8 2.4-2.7l2.7 1.6 2.3 3.1-2.3 1.7-1.2-.9v8.1h-8v-8.1l-1.1.8-2.3-1.7 2.3-3.1 2.8-1.5z" fill="#8acb0b"/><path class="st0" d="M360 1.6c-3.9 0-7 2.5-7 5.7 0 1.8 1.1 3.5 2.7 4.5.5 1.3-.6 2.3-1.8 2.6 1.3.1 3.7-.1 5.5-1.5 4.1.3 7.7-2.3 7.7-5.7-.1-3.1-3.2-5.6-7.1-5.6z"/><path class="st2" d="M31.5 39.6v.4c0 1.7-.6 3.4-1.7 4.7-.7.9-1.6 1.6-2.7 2.1-1.7.8-3.7.9-5.5.3-1.5-.5-2.7-1.4-3.7-2.7s-1.5-2.8-1.5-4.4c0-.3 0-.6.1-.9.1-1 .5-2 1-2.9.9-1.6 2.4-2.8 4.2-3.3.7-.2 1.5-.4 2.3-.4.6 0 1.2.1 1.8.2 1.8.4 3.4 1.5 4.4 3.1.8 1.1 1.2 2.4 1.3 3.8zm-2 0h.7c-.1-1.1-.4-2.2-1-3.1h-2.5l-1.3-2.6c-1-.2-2.1-.2-3.1.1l-1.4 2.5h-2c-.5.8-.9 1.7-1 2.6h.7l1.4 2.5-1.1 1.9c.8 1.2 2 2 3.3 2.4l.9-1.5h2.8l.7 1.2c1-.4 1.8-1.1 2.4-2l-.9-1.6 1.4-2.4zm-6.9-2.1h2.8l1.4 2.5-1.4 2.5h-2.8L21.2 40l1.4-2.5z"/><g id="Vrstva_2_1_"><path class="st2" d="M26.6 4.5l-1.3-2.6c-1-.2-2.1-.2-3.1.1l-1.4 2.5h-2c-.5.8-.9 1.7-1 2.6h.7l1.4 2.5-1.1 1.9c.8 1.2 2 2 3.3 2.4l.9-1.5h2.8l.7 1.2c1-.4 1.8-1.1 2.4-2L28 10l1.4-2.5h.7c-.1-1.1-.4-2.2-1-3.1.1.1-2.5.1-2.5.1zm-1.2 5.9h-2.8l-1.4-2.5 1.4-2.5h2.8l1.4 2.4-1.4 2.6z"/><path class="st0" d="M22.6 5.5l-1.4 2.4 1.4 2.5h2.8l1.4-2.5-1.4-2.4z"/><path class="st0" d="M31.5 7.6c-.1-1.4-.5-2.7-1.3-3.8-1-1.5-2.6-2.6-4.4-3.1-.6-.1-1.2-.2-1.8-.2-.8 0-1.6.1-2.3.4-1.7.6-3.2 1.8-4.2 3.3-.5.9-.9 1.9-1 2.9 0 .3-.1.6-.1.9 0 1.6.5 3.2 1.5 4.4.9 1.2 2.2 2.2 3.7 2.7 1.8.6 3.8.5 5.5-.3 1-.5 2-1.2 2.7-2.1 1.1-1.3 1.7-3 1.7-4.7v-.4zm-2 0l-1.4 2.5.9 1.6c-.6.8-1.5 1.5-2.4 2l-.7-1.2H23l-.9 1.5c-1.3-.4-2.5-1.3-3.3-2.4l1.1-1.9-1.4-2.5h-.7c.1-.9.5-1.8 1-2.6h2L22.2 2c1-.3 2-.3 3.1-.1l1.3 2.6h2.5c.6.9 1 2 1 3.1h-.6z"/></g><path class="st2" d="M26.6 20.5l-1.3-2.6c-1-.2-2-.2-3 .1v.1l-1.4 2.5h-2c-.5.8-.9 1.7-1 2.6h.7l1.4 2.5-1.1 1.9c.8 1.2 2 2 3.3 2.4l.9-1.5h2.8l.7 1.2c1-.4 1.8-1.1 2.4-2l-.9-1.6 1.4-2.5h.7c-.1-1.1-.4-2.2-1-3.1h-2.6zm-1.2 5.9h-2.8l-1.4-2.5 1.4-2.5h2.8l1.4 2.5-1.4 2.5z"/><path class="st14" d="M31.5 23.6c-.1-1.4-.5-2.7-1.3-3.8-1-1.5-2.6-2.6-4.4-3.1-.6-.1-1.2-.2-1.8-.2-.8 0-1.6.1-2.3.4-1.7.6-3.2 1.8-4.2 3.3-.5.9-.9 1.9-1 2.9 0 .3-.1.6-.1.9 0 1.6.5 3.2 1.5 4.4.9 1.2 2.2 2.2 3.7 2.7 1.8.6 3.8.5 5.5-.3 1-.5 2-1.2 2.7-2.1 1.1-1.3 1.7-3 1.7-4.7v-.4zm-2 0l-1.4 2.5.9 1.6c-.6.8-1.5 1.5-2.4 2l-.7-1.2H23l-.9 1.5c-1.3-.4-2.5-1.3-3.3-2.4l1.1-1.9-1.4-2.5h-.7c.1-.9.5-1.9 1-2.6h2l1.4-2.5V18c1-.3 2-.3 3-.1l1.3 2.6H29c.6.9 1 2 1 3.1h-.5zm0 0z"/><path class="st14" d="M22.6 21.5l-1.4 2.4 1.4 2.5h2.8l1.4-2.5-1.4-2.4z"/><path class="st0" d="M378 8.7c2.6-4.8.7-7.4-2-7.4-2.8 0-4.6 2.7-2 7.4.9 1.6-.4 2-2.2 2.4-1.6.4-2.1 1.2-2.1 2.5v1.2h5.4l.4-2h1.3l.4 2h5.4v-1.2c0-1.4-.6-2.2-2.2-2.5-2-.5-3.3-.9-2.4-2.4zm-1.5 3.1h-1.1l-.4-1.3h1.9l-.4 1.3z"/><path d="M392 3c-2.8.1-5 2.3-4.9 5.1.1 2.7 2.2 4.8 4.9 4.9 2.8-.1 5-2.3 4.9-5.1-.1-2.7-2.2-4.8-4.9-4.9zm4 1.1l-8 8" fill="none" stroke="#d92a2f" stroke-width="2"/><path d="M210 20c0-1.1.9-2 2-2h8c1.1 0 2 .9 2 2v8c0 1.1-.9 2-2 2h-8c-1.1 0-2-.9-2-2v-8z" fill="#dadada"/><path class="st0" d="M217.3 26.5h-2.6l-.5 1.5h-2l2.9-7.8h1.8l2.9 7.8h-2l-.5-1.5zm-2.1-1.4h1.7l-.8-2.7c-.1 0-.9 2.7-.9 2.7z"/><circle class="st17" cx="407" cy="8" r="6.5"/><path class="st17" d="M409.5 8l-4 2V6l4 2z"/><path class="st18" d="M426.6 14.9c-3.9 1.4-8.2-.6-9.6-4.5s.6-8.2 4.5-9.6 8.2.6 9.6 4.5-.6 8.2-4.5 9.6zm-.5-1.3c3.2-1.2 4.8-4.7 3.7-7.9S425.1.9 421.9 2c-3.2 1.2-4.8 4.7-3.6 7.9s4.6 4.9 7.8 3.7z"/><path class="st18" d="M422 14.9s-1.9-.8-2-.8c-.2.1-.2-.4-.2-.6.1-.8.8-1.4 1.6-1.4.8.1 1.4.8 1.4 1.6 0 .3-.2.7-.4.9-.1.2-.2.2-.4.3zm-.4-.6c.4-.1.6-.6.4-1-.1-.4-.6-.6-1-.4-.4.1-.6.6-.4 1 .1.4.6.6 1 .4zm4.5-.8c-.8.3-1.6-.1-1.9-.9-.3-.8.1-1.6.9-1.9.8-.3 1.6.1 1.9.9.2.7-.2 1.6-.9 1.9zm-.3-.7c.4-.1.6-.6.4-1-.1-.4-.6-.6-1-.4-.4.1-.6.6-.4 1 .2.3.6.5 1 .4zm4.3-1.1c-.2.1-.2.3-.4.3-.8 0-1.5-.7-1.4-1.6 0-.8.7-1.5 1.6-1.4.4 0 .8.2 1.1.5.1.1-.1.4 0 .6-.1.2-.8 1.6-.9 1.6zm-.1-.5c.4-.1.6-.6.4-1-.1-.4-.6-.6-1-.4-.4.1-.6.6-.4 1s.6.6 1 .4zm-1.3-3.5c-.8.3-1.6-.1-1.9-.9s.1-1.6.9-1.9c.8-.3 1.6.1 1.9.9s-.1 1.6-.9 1.9zm-.2-.7c.4-.1.6-.6.5-1s-.6-.6-1-.5c-.4.1-.6.6-.4 1 .1.5.5.7.9.5zm-4 2.3c-.8.3-1.6-.1-1.9-.9s.1-1.6.9-1.9c.8-.3 1.6.1 1.9.9s-.1 1.6-.9 1.9zm-.2-.7c.4-.1.6-.6.4-1-.1-.4-.6-.6-1-.4-.4.1-.6.6-.4 1 .1.3.6.5 1 .4zm-4 2.2c-.8.3-1.6-.1-1.9-.9-.3-.8.1-1.6.9-1.9.8-.3 1.6.1 1.9.9.3.8-.1 1.6-.9 1.9zm-.3-.7c.4-.1.6-.6.4-1-.1-.4-.6-.6-1-.4-.4.1-.6.6-.4 1 .2.3.6.5 1 .4zm-1.3-3.5c-.6.2-1.3 0-1.7-.5-.1-.1.1-.5.1-.7 0-.1.7-1.5.7-1.5.1 0 .1-.2.2-.2.8-.1 1.6.5 1.6 1.4.2.6-.2 1.2-.9 1.5zm-.2-.7c.4-.1.6-.6.5-1s-.6-.6-1-.5c-.4.1-.6.6-.4 1 .1.4.5.6.9.5zM423 5c-.8.3-1.6-.1-1.9-.9s.1-1.6.9-1.9h.1c.8-.3 1.6.1 1.9.9.1.8-.3 1.6-1 1.9zm-.3-.7c.4-.1.6-.6.5-1s-.6-.6-1-.5c-.4.1-.6.6-.4 1 .1.5.5.7.9.5zm4.5-.8c-.8.3-1.6-.1-1.9-.9-.2-.6 0-1.3.5-1.7.1-.1.5.1.6.1s1.3.7 1.4.7c.1.1.4.2.4.3 0 .7-.4 1.3-1 1.5zm-.3-.7c.4-.1.6-.6.5-1s-.6-.6-1-.5c-.4.1-.6.6-.4 1 .1.4.6.6.9.5z"/><path class="st19" d="M426.6 31c-3.9 1.4-8.2-.6-9.6-4.5s.6-8.2 4.5-9.6 8.2.6 9.6 4.5-.6 8.2-4.5 9.6zm-.5-1.2c3.2-1.2 4.8-4.7 3.7-7.9s-4.7-4.8-7.9-3.7c-3.2 1.2-4.8 4.7-3.6 7.9s4.6 4.8 7.8 3.7z"/><path class="st19" d="M422 31.1s-1.9-.8-2-.8c-.2.1-.2-.4-.2-.6.1-.8.8-1.4 1.6-1.4.8.1 1.4.8 1.4 1.6 0 .3-.2.7-.4.9-.1.2-.2.2-.4.3zm-.4-.6c.4-.1.6-.6.4-1-.1-.4-.6-.6-1-.4s-.6.6-.4 1c.1.3.6.5 1 .4zm4.5-.9c-.8.3-1.6-.1-1.9-.9s.1-1.6.9-1.9 1.6.1 1.9.9c.2.8-.2 1.7-.9 1.9zm-.3-.7c.4-.1.6-.6.4-1-.1-.4-.6-.6-1-.4s-.6.6-.4 1 .6.6 1 .4zm4.3-1c-.2.1-.2.3-.4.3-.8 0-1.5-.7-1.4-1.6 0-.8.7-1.5 1.6-1.4.4 0 .8.2 1.1.5.1.1-.1.4 0 .6-.1.1-.8 1.5-.9 1.6zm-.1-.5c.4-.1.6-.6.4-1-.1-.4-.6-.6-1-.4-.4.1-.6.6-.4 1 .2.3.6.5 1 .4zm-1.3-3.5c-.8.3-1.6-.1-1.9-.9s.1-1.6.9-1.9c.8-.3 1.6.1 1.9.9.3.7-.1 1.6-.9 1.9zm-.2-.7c.4-.1.6-.6.5-1s-.6-.6-1-.5c-.4.1-.6.6-.4 1 .1.4.5.6.9.5zm-4 2.2c-.8.3-1.6-.1-1.9-.9s.1-1.6.9-1.9c.8-.3 1.6.1 1.9.9.3.8-.1 1.6-.9 1.9zm-.2-.7c.4-.1.6-.6.4-1-.1-.4-.6-.6-1-.4-.4.1-.6.6-.4 1 .1.3.6.5 1 .4zm-4 2.2c-.8.3-1.6-.1-1.9-.9s.1-1.6.9-1.9 1.6.1 1.9.9c.3.8-.1 1.7-.9 1.9zm-.3-.7c.4-.1.6-.6.4-1-.1-.4-.6-.6-1-.4-.4.1-.6.6-.4 1s.6.6 1 .4zm-1.3-3.5c-.6.2-1.3 0-1.7-.5-.1-.1.1-.5.1-.7 0-.1.7-1.5.7-1.5.1 0 .1-.2.2-.2.8-.1 1.6.5 1.6 1.4.2.7-.2 1.3-.9 1.5zm-.2-.7c.4-.1.6-.6.5-1s-.6-.6-1-.5c-.4.1-.6.6-.4 1 .1.5.5.7.9.5zm4.5-.8c-.8.3-1.6-.1-1.9-.9s.1-1.6.9-1.9h.1c.8-.3 1.6.1 1.9.9.1.8-.3 1.6-1 1.9zm-.3-.7c.4-.1.6-.6.5-1s-.6-.6-1-.5c-.4.1-.6.6-.4 1 .1.4.5.6.9.5zm4.5-.9c-.8.3-1.6-.1-1.9-.9-.2-.6 0-1.3.5-1.7.1-.1.5.1.6.1s1.3.7 1.4.7c.1.1.4.2.4.3 0 .7-.4 1.3-1 1.5zm-.3-.7c.4-.1.6-.6.5-1s-.6-.6-1-.5c-.4.1-.6.6-.4 1 .1.5.6.7.9.5z"/><path d="M248 1c-3.9 0-7 3.1-7 7s3.1 7 7 7 7-3.1 7-7-3.1-7-7-7zm1.5 10.9c-.4.1-.6.2-.9.3-.2.1-.5.1-.7.1-.4 0-.8-.1-1-.3s-.4-.5-.4-.8v-.4c0-.1 0-.3.1-.4l.5-1.6c0-.2.1-.3.1-.4V8c0-.2 0-.3-.1-.4s-.2-.1-.5-.1c-.1 0-.2 0-.4.1-.1 0-.2.1-.3.1l.1-.7c.3-.1.6-.2.8-.3.3-.1.5-.1.8-.1.4 0 .8.1 1 .3.2.2.4.5.4.8v.4c0 .2 0 .3-.1.5l-.4 1.6c0 .1-.1.3-.1.4v.4c0 .2 0 .4.1.4.1.1.3.1.5.1.1 0 .2 0 .4-.1.1 0 .2-.1.3-.1l-.2.6zm-.1-6.5c-.2.2-.5.3-.8.3s-.5-.1-.8-.3c-.2-.2-.3-.4-.3-.7 0-.3.1-.5.3-.7.2-.2.5-.3.8-.3s.5.1.8.3c.2.2.3.4.3.7s-.1.5-.3.7z" fill-rule="evenodd" clip-rule="evenodd" fill="#3cacf9"/><path d="M248 17c-3.9 0-7 3.1-7 7s3.1 7 7 7 7-3.1 7-7-3.1-7-7-7zm.6 11.2c-.2.2-.5.3-.8.3s-.6-.1-.8-.3c-.2-.2-.3-.4-.3-.8 0-.3.1-.6.3-.8.2-.2.5-.3.8-.3s.6.1.8.3c.2.2.3.4.3.8 0 .3-.1.6-.3.8zm1.9-5.2c-.2.3-.5.6-1 .9-.2.1-.4.2-.5.3l-.3.3c-.1.1-.1.2-.2.3v.7h-1.6v-1c0-.2.1-.4.2-.5.1-.2.2-.3.4-.4.1-.1.3-.3.5-.4s.4-.2.5-.3l.3-.3c.1-.1.1-.2.2-.3s0-.2 0-.4 0-.3-.1-.4-.1-.2-.2-.3c-.1-.1-.2-.2-.4-.2s-.3-.1-.5-.1c-.4 0-.6.1-.8.3-.2.2-.3.5-.3.8H245c0-.4.1-.7.2-1 .1-.3.3-.6.6-.8s.6-.4.9-.5c.4-.1.8-.2 1.2-.2s.8.1 1.2.2.7.3.9.5c.3.2.4.5.6.7s.2.6.2 1-.1.8-.3 1.1z" fill="#3cacf9"/><path class="st0" d="M452 1c2.2 0 4 1.8 4 4v5c0 2.2-1.8 4-4 4h-2c0 .6-.4 1-1 1h-6c-.6 0-1-.4-1-1h-2c-2.2 0-4-1.8-4-4V5c0-2.2 1.8-4 4-4h12zm0 1.5h-12c-1.3 0-2.4 1-2.5 2.3V10c0 1.3 1 2.4 2.3 2.5H452c1.3 0 2.4-1 2.5-2.3V5c0-1.3-1-2.4-2.3-2.5h-.2zM440 5l.7 2.3.6 1.9.6-2 .7-2.3h1l-1.8 5.6h-1L439 5h1zm6.4 0l2 5.6h-1l-.4-1.2h-2.1l-.4 1.2h-1l2-5.6h.9zm4.9 0c1.1 0 1.6.9 1.6 1.7 0 .6-.4 1.3-1 1.5l1 2.3h-1l-.9-2.2h-1.2v2.2h-.9V5h2.4zm-5.4 1.1l-.4 1.4-.3 1.1h1.6l-.3-1-.6-1.5zm5.2-.3h-1.3v1.7h1.3c.5 0 .9-.3.9-.9 0-.4-.3-.8-.9-.8z"/><path class="st1" d="M452 17c2.2 0 4 1.8 4 4v5c0 2.2-1.8 4-4 4h-2c0 .6-.4 1-1 1h-6c-.6 0-1-.4-1-1h-2c-2.2 0-4-1.8-4-4v-5c0-2.2 1.8-4 4-4h12zm0 1.5h-12c-1.3 0-2.4 1-2.5 2.3V26c0 1.3 1 2.4 2.3 2.5H452c1.3 0 2.4-1 2.5-2.3V21c0-1.3-1-2.4-2.3-2.5h-.2zM440 21l.7 2.3.6 1.9.6-2 .7-2.3h1l-1.8 5.6h-1L439 21h1zm6.4 0l2 5.6h-1l-.4-1.2h-2.1l-.4 1.2h-1l2-5.6h.9zm4.9 0c1.1 0 1.6.9 1.6 1.7 0 .6-.4 1.3-1 1.5l1 2.3h-1l-.9-2.2h-1.2v2.2h-.9V21h2.4zm-5.4 1.1l-.4 1.4-.3 1.1h1.6l-.3-1-.6-1.5zm5.2-.3h-1.3v1.7h1.3c.5 0 .9-.3.9-.9 0-.4-.3-.8-.9-.8z"/></svg>