<svg version="1.1" id="Vrstva_1" xmlns="http://www.w3.org/2000/svg" x="0" y="0" width="240" height="55" xml:space="preserve"><style>.st0{fill:#bc161c}.st1{fill:#fff}.st3{fill:#8f8f8f}.st4{fill:none;stroke:#8f8f8f}.st7{fill:#656565}</style><g id="Vrstva_1_1_"><path class="st0" d="M40 0h39v19H40V0z"/><path class="st1" d="M54.2 8h-3.4V2.2h.8v5.1h2.6V8zm3.2 0h-2.3v-.6h.7V2.8h-.7v-.6h2.3v.6h-.7v4.6h.7V8zm5.8-5.8l-2 5.8h-.8l-2-5.8h.8L60.8 7l1.6-4.8h.8zM64.3 8V2.2h3.6v.7H65v1.6h2.7v.7H65v2.2h2.9V8h-3.6zm-18 8.1c-.4 0-.7-.1-1-.2-.3-.1-.6-.3-.8-.6s-.4-.6-.5-.9c-.1-.4-.2-.9-.2-1.3s.1-.9.2-1.3c.1-.3.3-.7.5-.9.2-.3.5-.5.8-.6s.7-.2 1.1-.2h.5c.2 0 .3.1.5.1.1 0 .3.1.4.1.1.1.3.1.4.2v.9H48c-.1-.1-.2-.2-.3-.2-.3-.2-.6-.4-.9-.5-.2-.1-.4-.1-.6-.1-.5 0-1 .2-1.3.6-.2.2-.3.5-.4.7-.1.3-.1.7-.1 1s0 .7.1 1 .2.5.4.7.3.3.6.4c.2.1.5.1.7.1s.4 0 .6-.1c.2 0 .3-.1.5-.2.1-.1.3-.2.4-.2.1-.1.2-.1.2-.2h.1v.9l-.4.2-.9.3c-.1.3-.2.3-.4.3zm3.1-.1v-5.8H53v.7h-2.9v1.6h2.7v.7h-2.7v2.2H53v.6h-3.6zm9.2 0h-.9l-2.6-5v5h-.7v-5.8h1.1l2.3 4.6v-4.6h.7V16h.1zm3.1 0v-5.1h-2v-.7h4.7v.7h-2V16h-.7zm8.4 0h-1l-1.8-2.3h-.9V16h-.8v-5.8h1.5c.3 0 .6 0 .8.1.2 0 .4.1.6.3.2.1.4.3.5.5s.2.5.2.8c0 .4-.1.8-.3 1.1-.2.3-.5.5-.9.6l2.1 2.4zm-1.7-4.2c0-.2 0-.3-.1-.4l-.3-.3c-.1-.1-.2-.1-.4-.2h-1.3V13h.7c.2 0 .4 0 .6-.1.2 0 .3-.1.5-.2.1-.1.2-.2.2-.4.1-.1.1-.3.1-.5zm2.7 4.2v-5.8h3.6v.7h-2.9v1.6h2.7v.7h-2.7v2.2h2.9v.6h-3.6z"/><path class="st1" d="M54.2 8h-3.4V2.2h.8v5.1h2.6V8zm3.2 0h-2.3v-.6h.7V2.8h-.7v-.6h2.3v.6h-.7v4.6h.7V8zm5.8-5.8l-2 5.8h-.8l-2-5.8h.8L60.8 7l1.6-4.8h.8zM64.3 8V2.2h3.6v.7H65v1.6h2.7v.7H65v2.2h2.9V8h-3.6zm-18 8.1c-.4 0-.7-.1-1-.2-.3-.1-.6-.3-.8-.6s-.4-.6-.5-.9c-.1-.4-.2-.9-.2-1.3s.1-.9.2-1.3c.1-.3.3-.7.5-.9.2-.3.5-.5.8-.6s.7-.2 1.1-.2h.5c.2 0 .3.1.5.1.1 0 .3.1.4.1.1.1.3.1.4.2v.9H48c-.1-.1-.2-.2-.3-.2-.3-.2-.6-.4-.9-.5-.2-.1-.4-.1-.6-.1-.5 0-1 .2-1.3.6-.2.2-.3.5-.4.7-.1.3-.1.7-.1 1s0 .7.1 1 .2.5.4.7.3.3.6.4c.2.1.5.1.7.1s.4 0 .6-.1c.2 0 .3-.1.5-.2.1-.1.3-.2.4-.2.1-.1.2-.1.2-.2h.1v.9l-.4.2-.9.3c-.1.3-.2.3-.4.3zm3.1-.1v-5.8H53v.7h-2.9v1.6h2.7v.7h-2.7v2.2H53v.6h-3.6zm9.2 0h-.9l-2.6-5v5h-.7v-5.8h1.1l2.3 4.6v-4.6h.7V16h.1zm3.1 0v-5.1h-2v-.7h4.7v.7h-2V16h-.7zm8.4 0h-1l-1.8-2.3h-.9V16h-.8v-5.8h1.5c.3 0 .6 0 .8.1.2 0 .4.1.6.3.2.1.4.3.5.5s.2.5.2.8c0 .4-.1.8-.3 1.1-.2.3-.5.5-.9.6l2.1 2.4zm-1.7-4.2c0-.2 0-.3-.1-.4l-.3-.3c-.1-.1-.2-.1-.4-.2h-1.3V13h.7c.2 0 .4 0 .6-.1.2 0 .3-.1.5-.2.1-.1.2-.2.2-.4.1-.1.1-.3.1-.5zm2.7 4.2v-5.8h3.6v.7h-2.9v1.6h2.7v.7h-2.7v2.2h2.9v.6h-3.6z"/><path d="M99 20h44v14H99V20z" fill="#498ffd"/><path class="st1" d="M107.3 25.9c0 .2 0 .5-.1.7s-.2.4-.4.6c-.2.2-.4.4-.7.5-.3.1-.7.2-1 .2h-.7V30h-.8v-5.8h1.5c.3 0 .6 0 .9.1.2.1.4.1.6.3.2.1.4.3.5.6.1.2.2.5.2.7zm-.8.1c0-.2 0-.4-.1-.5s-.2-.3-.3-.4c-.1-.1-.3-.1-.4-.2-.2 0-.4-.1-.6 0h-.6v2.3h.5c.3 0 .5 0 .8-.1.2 0 .3-.1.5-.3.1-.1.2-.2.2-.4-.1-.1 0-.3 0-.4zm6.6 4h-1l-1.8-2.3h-.9V30h-.8v-5.8h1.5c.3 0 .6 0 .8.1.2 0 .4.1.6.3.2.1.4.3.5.5s.2.5.2.8c0 .4-.1.8-.3 1.1-.2.3-.5.5-.9.6l2.1 2.4zm-1.7-4.2c0-.2 0-.3-.1-.5l-.3-.3c-.1-.1-.2-.1-.4-.2h-1.3V27h.7c.2 0 .4 0 .6-.1.2 0 .3-.1.5-.2.1-.1.2-.2.2-.4.1-.1.1-.3.1-.5zm2.7 4.2v-5.8h3.6v.7h-2.9v1.6h2.7v.7h-2.7v2.2h2.9v.6h-3.6zm9.3-5.8l-2 5.8h-.8l-2-5.8h.8L121 29l1.6-4.8h.8zm3.1 5.8h-2.3v-.6h.7v-4.6h-.7v-.6h2.3v.6h-.7v4.6h.7v.6zm1.6 0v-5.8h3.6v.7h-2.9v1.6h2.7v.7h-2.7v2.2h2.9v.6h-3.6zm11.6-5.8l-1.5 5.8h-.9l-1.2-4.8L135 30h-.9l-1.5-5.8h.8l1.2 4.8 1.2-4.8h.8l1.2 4.9 1.2-4.9h.7z"/><path class="st1" d="M107.3 25.9c0 .2 0 .5-.1.7s-.2.4-.4.6c-.2.2-.4.4-.7.5-.3.1-.7.2-1 .2h-.7V30h-.8v-5.8h1.5c.3 0 .6 0 .9.1.2.1.4.1.6.3.2.1.4.3.5.6.1.2.2.5.2.7zm-.8.1c0-.2 0-.4-.1-.5s-.2-.3-.3-.4c-.1-.1-.3-.1-.4-.2-.2 0-.4-.1-.6 0h-.6v2.3h.5c.3 0 .5 0 .8-.1.2 0 .3-.1.5-.3.1-.1.2-.2.2-.4-.1-.1 0-.3 0-.4zm6.6 4h-1l-1.8-2.3h-.9V30h-.8v-5.8h1.5c.3 0 .6 0 .8.1.2 0 .4.1.6.3.2.1.4.3.5.5s.2.5.2.8c0 .4-.1.8-.3 1.1-.2.3-.5.5-.9.6l2.1 2.4zm-1.7-4.2c0-.2 0-.3-.1-.5l-.3-.3c-.1-.1-.2-.1-.4-.2h-1.3V27h.7c.2 0 .4 0 .6-.1.2 0 .3-.1.5-.2.1-.1.2-.2.2-.4.1-.1.1-.3.1-.5zm2.7 4.2v-5.8h3.6v.7h-2.9v1.6h2.7v.7h-2.7v2.2h2.9v.6h-3.6zm9.3-5.8l-2 5.8h-.8l-2-5.8h.8L121 29l1.6-4.8h.8zm3.1 5.8h-2.3v-.6h.7v-4.6h-.7v-.6h2.3v.6h-.7v4.6h.7v.6zm1.6 0v-5.8h3.6v.7h-2.9v1.6h2.7v.7h-2.7v2.2h2.9v.6h-3.6zm11.6-5.8l-1.5 5.8h-.9l-1.2-4.8L135 30h-.9l-1.5-5.8h.8l1.2 4.8 1.2-4.8h.8l1.2 4.9 1.2-4.9h.7z"/><path class="st3" d="M85.8 4.1l.2.2s.1.1.2.1.1 0 .2.1h.3s.1 0 .1-.1c.1 0 .1-.1.2-.1l.1-.1.1-.1.1-.1c0-.1 0-.1.1-.2v-.4c0-.1 0-.1-.1-.2 0-.1-.1-.2-.2-.2l-.1-.1c-.1 0-.1-.1-.1-.1s-.1 0-.2-.1h-.4c-.1 0-.1 0-.2.1 0 0-.1 0-.1.1l-.1.1-.1.1-.1.1s0 .1-.1.2v.4c0 .1 0 .1.1.2 0 0 .1 0 .1.1zM87 9.5V5.8c0-.2-.1-.3-.3-.3h-1.3c-.2 0-.3.1-.3.3v.3c0 .2.1.3.3.3h.6v3h-.7c-.2 0-.3.1-.3.3v.3c0 .2.1.3.3.3h2c.2 0 .3-.1.3-.3v-.2c0-.2-.1-.3-.3-.3H87z"/><circle class="st4" cx="86.5" cy="6.5" r="6"/><path class="st4" d="M95.5.5h10c.6 0 1 .4 1 1v6c0 .6-.4 1-1 1h-10c-.6 0-1-.4-1-1v-6c0-.6.4-1 1-1zm4.5 9h1v1h-1v-1zm-4 1h8.9"/><g id="_x2D_g-standing" transform="translate(130 306)"><path id="body" class="st4" d="M-9.6-300.6l1.3-1.2-2-2.7-2.3-1H-17l-2.7 1-1.6 2.7 1.3 1.2 1.5-1.3v7.4h7v-7.6l1.9 1.5z"/><path id="Path-5" class="st4" d="M-17.9-305.2l2.9 1.9 3-1.9"/></g><path class="st4" d="M137.5.5h3c1.1 0 2 .9 2 2v3c0 1.1-.9 2-2 2h-3c-1.1 0-2-.9-2-2v-3c0-1.1.9-2 2-2z"/><circle class="st4" cx="139" cy="4" r="1.5"/><path class="st4" d="M123.5.5h10v12h-10V.5zm0 2h9.9m-9.9 8h9.9"/><path class="st3" d="M129 1h1v1h-1V1zm-2 0h1v1h-1V1zm-2 0h1v1h-1V1zm6 0h1v1h-1V1zm-2 10h1v1h-1v-1zm-2 0h1v1h-1v-1zm-2 0h1v1h-1v-1zm6 0h1v1h-1v-1z"/><path class="st4" d="M130.5 6.5l-4 2v-4l4 2z"/><path class="st0" d="M27 20h26v14H27V20z"/><path class="st1" d="M35 30h-3.4v-5.8h.8v5.1H35v.7zm3.2 0h-2.3v-.6h.7v-4.6h-.7v-.6h2.3v.6h-.7v4.6h.7v.6zm5.7-5.8l-2 5.8h-.8l-2-5.8h.8l1.6 4.8 1.6-4.8h.8zM45 30v-5.8h3.6v.7h-2.9v1.6h2.7v.7h-2.7v2.2h2.9v.6H45z"/><path class="st1" d="M35 30h-3.4v-5.8h.8v5.1H35v.7zm3.2 0h-2.3v-.6h.7v-4.6h-.7v-.6h2.3v.6h-.7v4.6h.7v.6zm5.7-5.8l-2 5.8h-.8l-2-5.8h.8l1.6 4.8 1.6-4.8h.8zM45 30v-5.8h3.6v.7h-2.9v1.6h2.7v.7h-2.7v2.2h2.9v.6H45z"/><g id="Vrstva_3" fill="none" stroke-width="2" stroke-linecap="square"><path d="M6.2 48.8l-2.4-2.4m-2.4 2.4l2.4-2.4m0 7.2v-6.4" stroke="#3fbd40"/><path d="M103.8 46v6.4m2.4-1.6l-2.4 2.3m-2.4-2.3l2.4 2.3" stroke="#d42e2f"/></g><path class="st4" d="M146.5.5h6c1.1 0 2 .9 2 2v6c0 1.1-.9 2-2 2h-6c-1.1 0-2-.9-2-2v-6c0-1.1.9-2 2-2zm3 8.5V2.5m2.5 2.7l-2.9-2.9M147 5.2l2.8-2.8"/></g><path class="st4" d="M.5 20.5h25v13H.5v-13z"/><path class="st7" d="M8 30H4.6v-5.8h.8v5.1H8v.7zm3.2 0H8.9v-.6h.7v-4.6h-.7v-.6h2.3v.6h-.7v4.6h.7v.6zm5.7-5.8l-2 5.8h-.8l-2-5.8h.8l1.6 4.8 1.6-4.8h.8zM18 30v-5.8h3.6v.7h-2.9v1.6h2.7v.7h-2.7v2.2h2.9v.6H18z"/><path class="st7" d="M8 30H4.6v-5.8h.8v5.1H8v.7zm3.2 0H8.9v-.6h.7v-4.6h-.7v-.6h2.3v.6h-.7v4.6h.7v.6zm5.7-5.8l-2 5.8h-.8l-2-5.8h.8l1.6 4.8 1.6-4.8h.8zM18 30v-5.8h3.6v.7h-2.9v1.6h2.7v.7h-2.7v2.2h2.9v.6H18z"/><path class="st4" d="M54.5 20.5h43v13h-43v-13z"/><path class="st7" d="M62.3 25.9c0 .3 0 .5-.1.7-.1.2-.2.4-.4.6-.2.2-.4.3-.7.5-.3.1-.6.2-1 .2h-.7V30h-.8v-5.8H60c.3 0 .6 0 .9.1.2.1.5.1.6.3.2.1.4.3.5.6.2.1.3.4.3.7zm-.8.1c0-.2 0-.4-.1-.5-.1-.1-.2-.3-.3-.4-.1-.1-.3-.1-.4-.2-.2 0-.4-.1-.6-.1h-.6v2.3h.5c.3 0 .6 0 .8-.1.2-.1.4-.1.5-.3.1-.1.2-.2.2-.4-.1 0 0-.2 0-.3zm6.6 4h-1l-1.8-2.3h-.9V30h-.8v-5.8h1.5c.3 0 .6 0 .8.1.2 0 .4.1.6.3.2.1.4.3.5.5.1.2.2.5.2.8 0 .4-.1.8-.3 1.1-.2.3-.5.5-.9.6l2.1 2.4zm-1.7-4.2c0-.2 0-.3-.1-.4l-.3-.3c-.1-.1-.2-.1-.4-.2h-1.3V27h.7c.2 0 .4 0 .6-.1.2 0 .3-.1.5-.2.1-.1.2-.2.2-.4.1-.1.1-.3.1-.5zm2.7 4.2v-5.8h3.6v.7h-2.9v1.6h2.7v.7h-2.7v2.2h2.9v.6h-3.6zm9.3-5.8l-2 5.8h-.8l-2-5.8h.8L76 29l1.6-4.8h.8zm3.1 5.8h-2.3v-.6h.8v-4.6h-.7v-.6h2.3v.6h-.7v4.6h.7l-.1.6zm1.6 0v-5.8h3.6v.7h-2.9v1.6h2.7v.7h-2.7v2.2h2.9v.6h-3.6zm11.6-5.8L93.2 30h-.9l-1.2-4.8L90 30h-.9l-1.5-5.8h.8l1.2 4.8 1.2-4.8h.8l1.2 4.9 1.2-4.9h.7z"/><path class="st7" d="M62.3 25.9c0 .3 0 .5-.1.7-.1.2-.2.4-.4.6-.2.2-.4.3-.7.5-.3.1-.6.2-1 .2h-.7V30h-.8v-5.8H60c.3 0 .6 0 .9.1.2.1.5.1.6.3.2.1.4.3.5.6.2.1.3.4.3.7zm-.8.1c0-.2 0-.4-.1-.5-.1-.1-.2-.3-.3-.4-.1-.1-.3-.1-.4-.2-.2 0-.4-.1-.6-.1h-.6v2.3h.5c.3 0 .6 0 .8-.1.2-.1.4-.1.5-.3.1-.1.2-.2.2-.4-.1 0 0-.2 0-.3zm6.6 4h-1l-1.8-2.3h-.9V30h-.8v-5.8h1.5c.3 0 .6 0 .8.1.2 0 .4.1.6.3.2.1.4.3.5.5.1.2.2.5.2.8 0 .4-.1.8-.3 1.1-.2.3-.5.5-.9.6l2.1 2.4zm-1.7-4.2c0-.2 0-.3-.1-.4l-.3-.3c-.1-.1-.2-.1-.4-.2h-1.3V27h.7c.2 0 .4 0 .6-.1.2 0 .3-.1.5-.2.1-.1.2-.2.2-.4.1-.1.1-.3.1-.5zm2.7 4.2v-5.8h3.6v.7h-2.9v1.6h2.7v.7h-2.7v2.2h2.9v.6h-3.6zm9.3-5.8l-2 5.8h-.8l-2-5.8h.8L76 29l1.6-4.8h.8zm3.1 5.8h-2.3v-.6h.8v-4.6h-.7v-.6h2.3v.6h-.7v4.6h.7l-.1.6zm1.6 0v-5.8h3.6v.7h-2.9v1.6h2.7v.7h-2.7v2.2h2.9v.6h-3.6zm11.6-5.8L93.2 30h-.9l-1.2-4.8L90 30h-.9l-1.5-5.8h.8l1.2 4.8 1.2-4.8h.8l1.2 4.9 1.2-4.9h.7z"/><path class="st4" d="M.5.5h38v18H.5V.5z"/><path class="st7" d="M14.2 8h-3.4V2.2h.8v5.1h2.6V8zm3.2 0h-2.3v-.6h.7V2.8h-.7v-.6h2.3v.6h-.7v4.6h.7V8zm5.8-5.8l-2 5.8h-.8l-2-5.8h.8L20.8 7l1.6-4.8h.8zM24.3 8V2.2h3.6v.7H25v1.6h2.7v.7H25v2.2h2.9V8h-3.6zm-18 8.1c-.4 0-.7-.1-1-.2-.3-.1-.6-.3-.8-.6-.2-.3-.4-.6-.5-.9-.1-.4-.2-.9-.2-1.3 0-.5.1-.9.2-1.3s.3-.7.5-.9c.2-.3.5-.5.8-.6.3-.1.7-.2 1.1-.2h.5c.2 0 .3.1.5.1.1 0 .3.1.4.1.1.1.3.1.4.2v.9H8c-.1-.1-.2-.2-.3-.2-.3-.2-.6-.4-.9-.5-.2-.1-.4-.1-.6-.1-.5 0-1 .2-1.3.6-.2.2-.3.5-.4.7-.1.3-.1.7-.1 1 0 .4 0 .7.1 1 .1.3.2.5.4.7.2.2.4.3.6.4.2.1.5.1.7.1.2 0 .4 0 .6-.1.2-.1.4-.1.5-.2.1-.1.3-.2.4-.2.1-.1.2-.1.2-.2H8v.9l-.4.2-.9.3c-.1.3-.2.3-.4.3zm3.1-.1v-5.8H13v.7h-2.9v1.6h2.7v.7h-2.7v2.2H13v.6H9.4zm9.2 0h-.9l-2.6-5v5h-.7v-5.8h1.1l2.3 4.6v-4.6h.7V16zm3.1 0v-5.1h-2v-.7h4.7v.7h-2V16h-.7zm8.4 0h-1l-1.8-2.3h-.9V16h-.8v-5.8h1.5c.3 0 .6 0 .8.1.2 0 .4.1.6.3.2.1.4.3.5.5.1.2.2.5.2.8 0 .4-.1.8-.3 1.1-.2.3-.5.5-.9.6l2.1 2.4zm-1.7-4.2c0-.2 0-.3-.1-.4l-.3-.3c-.1-.1-.2-.1-.4-.2h-1.3V13h.7c.2 0 .4 0 .6-.1.2 0 .3-.1.5-.2.1-.1.2-.2.2-.4.1-.1.1-.3.1-.5zm2.7 4.2v-5.8h3.6v.7h-2.9v1.6h2.7v.7h-2.7v2.2h2.9v.6h-3.6z"/><path class="st7" d="M14.2 8h-3.4V2.2h.8v5.1h2.6V8zm3.2 0h-2.3v-.6h.7V2.8h-.7v-.6h2.3v.6h-.7v4.6h.7V8zm5.8-5.8l-2 5.8h-.8l-2-5.8h.8L20.8 7l1.6-4.8h.8zM24.3 8V2.2h3.6v.7H25v1.6h2.7v.7H25v2.2h2.9V8h-3.6zm-18 8.1c-.4 0-.7-.1-1-.2-.3-.1-.6-.3-.8-.6-.2-.3-.4-.6-.5-.9-.1-.4-.2-.9-.2-1.3 0-.5.1-.9.2-1.3s.3-.7.5-.9c.2-.3.5-.5.8-.6.3-.1.7-.2 1.1-.2h.5c.2 0 .3.1.5.1.1 0 .3.1.4.1.1.1.3.1.4.2v.9H8c-.1-.1-.2-.2-.3-.2-.3-.2-.6-.4-.9-.5-.2-.1-.4-.1-.6-.1-.5 0-1 .2-1.3.6-.2.2-.3.5-.4.7-.1.3-.1.7-.1 1 0 .4 0 .7.1 1 .1.3.2.5.4.7.2.2.4.3.6.4.2.1.5.1.7.1.2 0 .4 0 .6-.1.2-.1.4-.1.5-.2.1-.1.3-.2.4-.2.1-.1.2-.1.2-.2H8v.9l-.4.2-.9.3c-.1.3-.2.3-.4.3zm3.1-.1v-5.8H13v.7h-2.9v1.6h2.7v.7h-2.7v2.2H13v.6H9.4zm9.2 0h-.9l-2.6-5v5h-.7v-5.8h1.1l2.3 4.6v-4.6h.7V16zm3.1 0v-5.1h-2v-.7h4.7v.7h-2V16h-.7zm8.4 0h-1l-1.8-2.3h-.9V16h-.8v-5.8h1.5c.3 0 .6 0 .8.1.2 0 .4.1.6.3.2.1.4.3.5.5.1.2.2.5.2.8 0 .4-.1.8-.3 1.1-.2.3-.5.5-.9.6l2.1 2.4zm-1.7-4.2c0-.2 0-.3-.1-.4l-.3-.3c-.1-.1-.2-.1-.4-.2h-1.3V13h.7c.2 0 .4 0 .6-.1.2 0 .3-.1.5-.2.1-.1.2-.2.2-.4.1-.1.1-.3.1-.5zm2.7 4.2v-5.8h3.6v.7h-2.9v1.6h2.7v.7h-2.7v2.2h2.9v.6h-3.6z"/><path class="st0" d="M156.5 0h27v27h-27V0z"/><path class="st1" d="M164.9 16.8h-3.4V11h.8v5.1h2.6v.7zm3.2 0h-2.3v-.6h.7v-4.6h-.7V11h2.3v.6h-.7v4.6h.7v.6zm5.7-5.8l-2 5.8h-.8l-2-5.8h.8l1.6 4.8L173 11h.8zm1.2 5.8V11h3.6v.7h-2.9v1.6h2.7v.7h-2.7v2.2h2.9v.7c0-.1-3.6-.1-3.6-.1z"/><path class="st1" d="M164.9 16.8h-3.4V11h.8v5.1h2.6v.7zm3.2 0h-2.3v-.6h.7v-4.6h-.7V11h2.3v.6h-.7v4.6h.7v.6zm5.7-5.8l-2 5.8h-.8l-2-5.8h.8l1.6 4.8L173 11h.8zm1.2 5.8V11h3.6v.7h-2.9v1.6h2.7v.7h-2.7v2.2h2.9v.7c0-.1-3.6-.1-3.6-.1z"/><path class="st4" d="M185.5.5h26v26h-26V.5z"/><path class="st7" d="M193.4 16.8H190V11h.8v5.1h2.6v.7zm3.2 0h-2.3v-.6h.7v-4.6h-.7V11h2.3v.6h-.7v4.6h.7v.6zm5.7-5.8l-2 5.8h-.8l-2-5.8h.8l1.6 4.8 1.6-4.8h.8zm1.2 5.8V11h3.6v.7h-2.9v1.6h2.7v.7h-2.7v2.2h2.9v.7c0-.1-3.6-.1-3.6-.1z"/><path class="st7" d="M193.4 16.8H190V11h.8v5.1h2.6v.7zm3.2 0h-2.3v-.6h.7v-4.6h-.7V11h2.3v.6h-.7v4.6h.7v.6zm5.7-5.8l-2 5.8h-.8l-2-5.8h.8l1.6 4.8 1.6-4.8h.8zm1.2 5.8V11h3.6v.7h-2.9v1.6h2.7v.7h-2.7v2.2h2.9v.7c0-.1-3.6-.1-3.6-.1z"/><g transform="translate(216)" stroke="#8F8F8F" fill="none" fill-rule="evenodd"><rect id="Rectangle-16" x=".5" y=".5" width="9" height="11" rx="1"/><path id="Rectangle-17" d="M3.5 1.5h3v1h-3zm1 8h1v1h-1z"/></g></svg>